<svg xmlns="http://www.w3.org/2000/svg" width="1024" height="1024" viewBox="0 0 1024 1024">
  <defs>
    <radialGradient id="bg" cx="50%" cy="42%" r="72%">
      <stop offset="0%" stop-color="#0d2818"/>
      <stop offset="55%" stop-color="#061a0f"/>
      <stop offset="100%" stop-color="#020805"/>
    </radialGradient>
    <linearGradient id="jet" x1="0%" y1="0%" x2="0%" y2="100%">
      <stop offset="0%" stop-color="#9dffc4"/>
      <stop offset="100%" stop-color="#2fdf6a"/>
    </linearGradient>
    <filter id="glow" x="-30%" y="-30%" width="160%" height="160%">
      <feGaussianBlur stdDeviation="9" result="b"/>
      <feMerge><feMergeNode in="b"/><feMergeNode in="SourceGraphic"/></feMerge>
    </filter>
  </defs>
  <rect width="1024" height="1024" rx="180" fill="url(#bg)"/>
  <g stroke="#1c5a34" fill="none" opacity="0.55">
    <circle cx="512" cy="500" r="392" stroke-width="4"/>
    <circle cx="512" cy="500" r="300" stroke-width="3" stroke-dasharray="10 16"/>
    <circle cx="512" cy="500" r="200" stroke-width="2"/>
  </g>
  <g stroke="#2fdf6a" stroke-width="5" opacity="0.7">
    <line x1="512" y1="74" x2="512" y2="150"/>
    <line x1="512" y1="850" x2="512" y2="926"/>
    <line x1="98" y1="500" x2="174" y2="500"/>
    <line x1="850" y1="500" x2="926" y2="500"/>
  </g>
  <path d="M512 500 L512 130 A370 370 0 0 1 760 250 Z" fill="#2fdf6a" opacity="0.10"/>
  <g fill="url(#jet)" filter="url(#glow)" transform="translate(512 512)">
    <path d="M0 -290 L26 -150 L34 -40 L250 70 L250 122 L40 84 L30 200 L96 250 L96 282 L0 250 L-96 282 L-96 250 L-30 200 L-40 84 L-250 122 L-250 70 L-34 -40 L-26 -150 Z"/>
  </g>
  <ellipse cx="512" cy="800" rx="26" ry="56" fill="#ffcc44" opacity="0.6"/>
  <ellipse cx="512" cy="788" rx="13" ry="34" fill="#fff4d0" opacity="0.85"/>
  <text x="512" y="968" font-family="monospace" font-size="78" font-weight="bold" fill="#3aff7a" text-anchor="middle" letter-spacing="10">СОКОЛ-87</text>
</svg>
